<svg id="Layer_1" data-name="Layer 1" xmlns="http://www.w3.org/2000/svg" viewBox="0 0 211 32.03"><path fill="white" d="M13.69,16.93c3.12-.6,6.53-1,9-1.26l1-.08c.65-.09,1-.13,1.1-.38s-.05-.53-.27-.9l-.11-.11a7.19,7.19,0,0,0-1.28-1.54,4,4,0,0,0-2.44-.55c-.64,0-1.95,0-3.53.13C19,9.75,20.8,7.71,21.94,6.36c3.49-.53,8.15-1,10.82-1.17h.09c.72,0,1.08,0,1.27-.31s0-.54-.14-.9a6.54,6.54,0,0,0-1.57-2,4.93,4.93,0,0,0-3.07-.87c-.27,0-.55,0-.84,0A106,106,0,0,0,16.34,2a8,8,0,0,1-1.53.17,1.25,1.25,0,0,1-1.22-.5l-.46.2a21.07,21.07,0,0,0,1.69,3.4c-4,5.05-12.13,16.78-14.44,21.4A1.66,1.66,0,0,0,.8,29.05,27.79,27.79,0,0,0,5.92,32.4L6.18,32c-1.26-.74-1.56-1.47-1-2.53C6.47,27.23,11.67,19.76,13.69,16.93ZM69.42,29.65A109.4,109.4,0,0,1,83.83,11.19c.16-.23.3-.37.39-.51.71-.06,1.45-.14,2.13-.18,1.62-.17,3.18-.25,4.31-.38l.15-.06c.9-.07,1.36-.15,1.47-.45s-.18-.67-.8-1.28a9.93,9.93,0,0,0-6.3-2.11h-.67a84.91,84.91,0,0,0-12.6,1.1,11.64,11.64,0,0,1-2,.13,5.61,5.61,0,0,1-2.66-.56L67,7.31A18.31,18.31,0,0,0,70.41,10a8.4,8.4,0,0,0,4.81,1.15h.44a96.42,96.42,0,0,0-11,15.71,1.69,1.69,0,0,0,0,1.81.87.87,0,0,0,.17.16.44.44,0,0,0,.1.12,17.48,17.48,0,0,0,4.18,2.89l.32-.38C69.12,31.2,68.83,30.74,69.42,29.65Zm31-.27,0-.12.07-.08a129,129,0,0,1,13.8-18.46c.89-1.08,1.06-1.56.3-2.41a16,16,0,0,0-2.32-1.88A2.73,2.73,0,0,0,111,5.94a1.65,1.65,0,0,0-1.17.74,103.84,103.84,0,0,0-9.3,11.9c-1.86.15-4.17.42-6.84.8l-.28,0c2.56-3.51,6.87-9.07,11.16-14,.87-1,1.15-1.58.25-2.43a13.62,13.62,0,0,0-2.3-1.81,3,3,0,0,0-1.32-.57c-.41,0-.67.3-1.15.82l0,.07C95.16,7,84.5,21.4,81.8,27.05c-.34.75-.46,1.3,0,1.86.56.75,2.87,2.09,4.72,3.05l.27-.43c-.51-.39-.69-.65-.16-1.67A56.39,56.39,0,0,1,90,24.32c2.62-.55,5.53-1.09,7.86-1.43-.78,1.26-1.44,2.53-2,3.75a1.57,1.57,0,0,0,.4,2.27,19.66,19.66,0,0,0,4.23,2.61l.27-.4C100.11,30.68,100.05,30.15,100.46,29.38Zm76.85-13.33a2,2,0,0,0-.5,2.14,2.71,2.71,0,0,0,.17.25,13.32,13.32,0,0,0,2.66,2.84L180,21c-.22-.36.27-1.06,1.32-1.87a25.21,25.21,0,0,0,5.56-6.39,2.37,2.37,0,0,0-.23-3.2,14.21,14.21,0,0,0-3.9-2.49A6.92,6.92,0,0,0,180,6.49a10.41,10.41,0,0,0-3.6.71,28.32,28.32,0,0,0-12.22,7.93c-1.78,2.14-1.67,4.13.43,5.89a40.52,40.52,0,0,0,4.08,2.83,28.3,28.3,0,0,1,2.87,2c.2.22.4.57.3.81s-.71.54-2,.54A20.6,20.6,0,0,1,161.34,25c-2.89-1.41-2.24-3.31-2-3.84l-.42-.23a7.12,7.12,0,0,0-1,4.85.63.63,0,0,0,.08.3,3.74,3.74,0,0,0,1.71,2.12,16.84,16.84,0,0,0,9.15,2.7A11.71,11.71,0,0,0,176.82,28a3.06,3.06,0,0,0,1.27-2.37A3.59,3.59,0,0,0,176.46,23c-.69-.56-1.73-1.18-2.72-1.81a21.61,21.61,0,0,1-2.2-1.48c-1.06-.83-1.86-1.5-.22-3.35,2.31-2.58,8.14-5.79,9.63-5.79h.14c.25.42-1.73,2.86-2.59,3.9A13.83,13.83,0,0,0,177.31,16.05ZM133.78,9.41a14.09,14.09,0,0,0-3.68-2.3,7.53,7.53,0,0,0-3.18-.74,9.36,9.36,0,0,0-4.31,1.17c-5.28,2.72-11.29,9-13.12,13.6-1.66,4.24,0,6.13,1.65,7.34a14.3,14.3,0,0,0,4.25,2.11,12.93,12.93,0,0,0,3,.42,9.6,9.6,0,0,0,3.95-.83C130,26.71,134.12,18.73,135,15.4,135.63,12.75,135.22,10.67,133.78,9.41Zm-8.91,11.3c-3.82,4.74-7.26,6.88-9,6.87a1.06,1.06,0,0,1-.67-.16.75.75,0,0,1-.31-.53c-.27-1.56,1.14-5.13,4.29-9,3.69-4.5,8.17-7.64,9.89-7.63a.88.88,0,0,1,.38.07C130.23,11,129.66,14.59,124.87,20.71Zm86-11.34a5.41,5.41,0,0,0-1.64-1.94,4.74,4.74,0,0,0-3.11-.84,98.4,98.4,0,0,0-14.07,1,5.12,5.12,0,0,1-1.11.13,1.6,1.6,0,0,1-1.05-.26l-.44.21a16.75,16.75,0,0,0,1.27,3,118,118,0,0,0-11,16.52,1.5,1.5,0,0,0,.48,2.25,15.63,15.63,0,0,0,1.84,1.2,2.7,2.7,0,0,0,1.49.48,6.57,6.57,0,0,0,1.6-.22c3.19-.69,7.9-1.26,11.72-1.68.52,0,.85-.07,1.16-.06a2,2,0,0,1,1.34.35l.37-.3-.09-.13a18.08,18.08,0,0,0-2.8-3,4.48,4.48,0,0,0-2.73-.66A47,47,0,0,0,187,26c.82-1.22,1.72-2.51,2.63-3.81h0c3.15-.57,6.44-1,8.9-1.26l1.07-.12c.58-.07,1-.14,1.13-.42s-.07-.54-.34-.88-.87-1.05-1.34-1.51a3.34,3.34,0,0,0-2.45-.7c-.8,0-1.92.05-3.47.14,1.31-1.68,2.92-3.72,4.38-5.48,3.64-.57,9.18-1.09,12-1.29h0c.85,0,1.22-.06,1.39-.36S211,9.73,210.87,9.37ZM163.82,8.2A6.16,6.16,0,0,0,162.24,7c-.17-.1-.34-.23-.53-.33a2.45,2.45,0,0,0-1.05-.43c-.57,0-.83.38-1.12.82C151.08,19.79,143,27.36,140.05,27.36a1.22,1.22,0,0,1-.4-.05c-.16-.07-.17-.19-.24-.38-.4-1.73,3.19-8.07,9.71-15.17,1.1-1.2,1.28-2.23.44-3.2a23.79,23.79,0,0,0-1.89-1.84c-.45-.35-.75-.61-1.13-.61a2.38,2.38,0,0,0-1.22.62c-5,3.95-10.15,12.13-11.32,15.29-.78,2.17-1.3,4.64.83,6.31a16.76,16.76,0,0,0,5,2.36,11.74,11.74,0,0,0,3,.39h0a11.85,11.85,0,0,0,7.33-2.8A50.48,50.48,0,0,0,164,10.71,2.07,2.07,0,0,0,163.82,8.2ZM67.67,9.63A13.68,13.68,0,0,0,63.84,7.2a4.61,4.61,0,0,0-.8-.31,6.62,6.62,0,0,0-2.55-.5,9.6,9.6,0,0,0-3.63.76A27.78,27.78,0,0,0,44.66,15c-1.81,2.12-1.69,4.12.43,5.89a37.74,37.74,0,0,0,4,2.82,23,23,0,0,1,2.86,2c.27.26.38.5.31.64s-.27.37-1.64.39a2.06,2.06,0,0,0-.34,0,29.74,29.74,0,0,1-11.19-3,116.34,116.34,0,0,1,4.91-13l.06-.13c.38-.84.76-1.64-1-2.55a24.41,24.41,0,0,0-2.86-1.35,26.14,26.14,0,0,0-3.53-1.23L36.47,6a.31.31,0,0,1,.16.25c0,.13,0,.59-.91,1.38a220,220,0,0,0-19.07,18.6c-1,1.26-1.17,2.14-.37,3a3.25,3.25,0,0,0,.58.68,20.17,20.17,0,0,0,3.27,2.81l.32-.39c-.6-.52-.95-.91-.08-2.17s4.48-5,9.64-10.17a.66.66,0,0,1,0,.15,3.55,3.55,0,0,0,.75,2.66A9.28,9.28,0,0,0,33.18,25a12.92,12.92,0,0,0-.44,2.3A1.94,1.94,0,0,0,33.23,29c.12.12.32.2.51.36a18.42,18.42,0,0,0,4.78,1.81l.21-.43a1.46,1.46,0,0,1-.93-1.88c.1-.35.15-.67.23-1a29.79,29.79,0,0,0,11.35,3l.15,0A11.93,11.93,0,0,0,53.82,30a11.49,11.49,0,0,0,4-2.31c2.06-1.83,1.15-3.38-.36-4.59-1.27-1-3.85-2.41-5-3.29s-2-1.69-.21-3.69a26.58,26.58,0,0,1,8.3-5.5,3.34,3.34,0,0,1,.82-.15.48.48,0,0,1,.16,0c.22.42-1.78,2.88-2.6,3.9-.47.58-.91,1.13-1.22,1.55a2.47,2.47,0,0,0-.57,1.87c.12.63,1.34,2,3.14,3.31l.34-.34a.3.3,0,0,1-.1-.27c.2.17.38.27.58.43-.39-.53.27-1.33,1.13-2a25.47,25.47,0,0,0,5.59-6.38A2.18,2.18,0,0,0,67.67,9.63ZM34.3,20.91a10,10,0,0,1-1.5-1.33,2.24,2.24,0,0,1-.66-1.69c1.78-1.77,3.44-3.38,4.56-4.41C36,15.32,35.05,18.33,34.3,20.91Z" transform="translate(-0.07 -0.63)"/><path d="M201.34,29.14a.86.86,0,0,1-.91-.89.88.88,0,0,1,.92-.9.9.9,0,0,1,0,1.79Zm0-1.58a.64.64,0,0,0-.65.69.66.66,0,0,0,.65.7h0a.65.65,0,0,0,.6-.69A.64.64,0,0,0,201.35,27.56Zm-.17,1.17H201l0-1h.35c.24,0,.39.07.38.32a.21.21,0,0,1-.22.23l.25.42h-.24l-.25-.42h-.06Zm.17-.56c.09,0,.17,0,.14-.12s-.08-.1-.17-.09h-.16v.22Z" transform="translate(-0.07 -0.63)"/></svg>
